<svg xmlns="http://www.w3.org/2000/svg" width="1200" height="720" viewBox="0 0 1200 720">
  <rect width="1200" height="720" fill="#07111f"/>
  <rect x="60" y="52" width="1080" height="616" fill="#111827" stroke="#5eead4" stroke-width="3"/>
  <g opacity=".16">
    <path d="M0 160h1200M0 320h1200M0 480h1200M180 0v720M360 0v720M540 0v720M720 0v720M900 0v720M1080 0v720" stroke="#a7f3d0"/>
  </g>
  <rect x="88" y="84" width="214" height="38" fill="#020617" stroke="#ef4444"/>
  <text x="106" y="110" fill="#ef4444" font-family="Consolas, monospace" font-size="24">REC 23:47:12</text>
  <rect x="836" y="84" width="278" height="38" fill="#020617" stroke="#38bdf8"/>
  <text x="856" y="110" fill="#38bdf8" font-family="Consolas, monospace" font-size="22">NEXGEN LOBI KAMERA 02</text>
  <ellipse cx="615" cy="343" rx="106" ry="132" fill="#1f2937"/>
  <circle cx="615" cy="248" r="62" fill="#c4a484"/>
  <rect x="532" y="362" width="166" height="166" rx="24" fill="#334155"/>
  <rect x="668" y="390" width="104" height="78" rx="8" fill="#f8fafc" stroke="#0f172a" stroke-width="4" transform="rotate(-8 720 429)"/>
  <text x="695" y="425" fill="#0f172a" font-family="Consolas, monospace" font-size="28" font-weight="700" transform="rotate(-8 720 429)">M.K.</text>
  <text x="681" y="452" fill="#0f172a" font-family="Consolas, monospace" font-size="13" transform="rotate(-8 720 429)">VISITOR</text>
  <path d="M90 622h260" stroke="#ef4444" stroke-width="4"/>
  <text x="90" y="650" fill="#e5e7eb" font-family="Consolas, monospace" font-size="22">SON KARE: ziyaretci karti okunabilir</text>
  <text x="870" y="650" fill="#5eead4" font-family="Consolas, monospace" font-size="18">flag ipucu: kart uzerindeki harfler</text>
</svg>
