<svg xmlns="http://www.w3.org/2000/svg" width="200" height="200">
  <rect width="200" height="200" fill="#c4874a"/>
  <!-- Cork fiber lines horizontal -->
  <line x1="0" y1="8"  x2="200" y2="10" stroke="#a06030" stroke-width="1.5" opacity="0.3"/>
  <line x1="0" y1="18" x2="200" y2="16" stroke="#b07040" stroke-width="1"   opacity="0.2"/>
  <line x1="0" y1="28" x2="200" y2="30" stroke="#904020" stroke-width="1.5" opacity="0.25"/>
  <line x1="0" y1="40" x2="200" y2="38" stroke="#a06030" stroke-width="1"   opacity="0.2"/>
  <line x1="0" y1="52" x2="200" y2="54" stroke="#b07040" stroke-width="2"   opacity="0.15"/>
  <line x1="0" y1="62" x2="200" y2="60" stroke="#904020" stroke-width="1"   opacity="0.25"/>
  <line x1="0" y1="74" x2="200" y2="76" stroke="#a06030" stroke-width="1.5" opacity="0.2"/>
  <line x1="0" y1="86" x2="200" y2="84" stroke="#b07040" stroke-width="1"   opacity="0.15"/>
  <line x1="0" y1="96" x2="200" y2="98" stroke="#904020" stroke-width="2"   opacity="0.2"/>
  <line x1="0" y1="108" x2="200" y2="106" stroke="#a06030" stroke-width="1" opacity="0.25"/>
  <line x1="0" y1="120" x2="200" y2="122" stroke="#b07040" stroke-width="1.5" opacity="0.2"/>
  <line x1="0" y1="132" x2="200" y2="130" stroke="#904020" stroke-width="1" opacity="0.15"/>
  <line x1="0" y1="144" x2="200" y2="146" stroke="#a06030" stroke-width="2" opacity="0.2"/>
  <line x1="0" y1="156" x2="200" y2="154" stroke="#b07040" stroke-width="1" opacity="0.25"/>
  <line x1="0" y1="168" x2="200" y2="170" stroke="#904020" stroke-width="1.5" opacity="0.2"/>
  <line x1="0" y1="180" x2="200" y2="178" stroke="#a06030" stroke-width="1" opacity="0.15"/>
  <line x1="0" y1="192" x2="200" y2="194" stroke="#b07040" stroke-width="2" opacity="0.2"/>
  <!-- Cork pores -->
  <ellipse cx="20"  cy="15"  rx="3" ry="2" fill="#7a4010" opacity="0.35"/>
  <ellipse cx="55"  cy="8"   rx="2" ry="3" fill="#6a3008" opacity="0.3"/>
  <ellipse cx="90"  cy="22"  rx="3" ry="2" fill="#8a4818" opacity="0.25"/>
  <ellipse cx="130" cy="12"  rx="2" ry="2" fill="#7a4010" opacity="0.3"/>
  <ellipse cx="165" cy="18"  rx="3" ry="2" fill="#6a3008" opacity="0.35"/>
  <ellipse cx="10"  cy="45"  rx="2" ry="3" fill="#8a4818" opacity="0.3"/>
  <ellipse cx="45"  cy="38"  rx="3" ry="2" fill="#7a4010" opacity="0.25"/>
  <ellipse cx="80"  cy="50"  rx="2" ry="2" fill="#6a3008" opacity="0.35"/>
  <ellipse cx="115" cy="42"  rx="3" ry="3" fill="#8a4818" opacity="0.3"/>
  <ellipse cx="150" cy="55"  rx="2" ry="2" fill="#7a4010" opacity="0.25"/>
  <ellipse cx="185" cy="40"  rx="3" ry="2" fill="#6a3008" opacity="0.3"/>
  <ellipse cx="30"  cy="72"  rx="2" ry="3" fill="#8a4818" opacity="0.35"/>
  <ellipse cx="68"  cy="65"  rx="3" ry="2" fill="#7a4010" opacity="0.3"/>
  <ellipse cx="105" cy="78"  rx="2" ry="2" fill="#6a3008" opacity="0.25"/>
  <ellipse cx="140" cy="68"  rx="3" ry="2" fill="#8a4818" opacity="0.35"/>
  <ellipse cx="175" cy="75"  rx="2" ry="3" fill="#7a4010" opacity="0.3"/>
  <ellipse cx="15"  cy="95"  rx="3" ry="2" fill="#6a3008" opacity="0.25"/>
  <ellipse cx="50"  cy="88"  rx="2" ry="2" fill="#8a4818" opacity="0.3"/>
  <ellipse cx="88"  cy="100" rx="3" ry="2" fill="#7a4010" opacity="0.35"/>
  <ellipse cx="125" cy="92"  rx="2" ry="3" fill="#6a3008" opacity="0.3"/>
  <ellipse cx="160" cy="105" rx="3" ry="2" fill="#8a4818" opacity="0.25"/>
  <ellipse cx="195" cy="95"  rx="2" ry="2" fill="#7a4010" opacity="0.35"/>
  <ellipse cx="25"  cy="120" rx="3" ry="2" fill="#6a3008" opacity="0.3"/>
  <ellipse cx="62"  cy="115" rx="2" ry="3" fill="#8a4818" opacity="0.25"/>
  <ellipse cx="98"  cy="128" rx="3" ry="2" fill="#7a4010" opacity="0.35"/>
  <ellipse cx="135" cy="118" rx="2" ry="2" fill="#6a3008" opacity="0.3"/>
  <ellipse cx="170" cy="130" rx="3" ry="2" fill="#8a4818" opacity="0.25"/>
  <ellipse cx="8"   cy="148" rx="2" ry="3" fill="#7a4010" opacity="0.3"/>
  <ellipse cx="42"  cy="140" rx="3" ry="2" fill="#6a3008" opacity="0.35"/>
  <ellipse cx="78"  cy="155" rx="2" ry="2" fill="#8a4818" opacity="0.3"/>
  <ellipse cx="115" cy="145" rx="3" ry="2" fill="#7a4010" opacity="0.25"/>
  <ellipse cx="152" cy="158" rx="2" ry="3" fill="#6a3008" opacity="0.35"/>
  <ellipse cx="188" cy="148" rx="3" ry="2" fill="#8a4818" opacity="0.3"/>
  <ellipse cx="35"  cy="172" rx="2" ry="2" fill="#7a4010" opacity="0.25"/>
  <ellipse cx="72"  cy="180" rx="3" ry="2" fill="#6a3008" opacity="0.3"/>
  <ellipse cx="108" cy="170" rx="2" ry="3" fill="#8a4818" opacity="0.35"/>
  <ellipse cx="145" cy="185" rx="3" ry="2" fill="#7a4010" opacity="0.3"/>
  <ellipse cx="182" cy="175" rx="2" ry="2" fill="#6a3008" opacity="0.25"/>
  <!-- Subtle color variation patches -->
  <rect x="0"   y="0"   width="100" height="100" fill="#b87030" opacity="0.08"/>
  <rect x="100" y="100" width="100" height="100" fill="#d49050" opacity="0.06"/>
  <rect x="50"  y="50"  width="100" height="100" fill="#c07838" opacity="0.05"/>
</svg>
